<svg width="138" height="44" viewBox="0 0 138 44" fill="none" xmlns="http://www.w3.org/2000/svg">
<path d="M34.6138 5.87973C32.5487 5.25837 27.9615 3.5953 27.7056 3.50392C24.8729 2.55359 22.0402 1.56672 19.2075 0.598118C18.44 0.287434 15.7169 2.31601 14.9676 2.7729C13.999 3.41254 11.5136 4.89286 11.2577 5.03906C8.00467 7.10419 4.71508 9.09622 1.44376 11.1248C0.950325 11.4355 0.475163 11.7462 0 12.0934C1.27928 12.5503 2.61339 12.8061 3.94751 12.9706C3.94751 15.0906 3.8013 17.2288 4.16681 19.3305C4.36784 19.2757 4.75163 19.1843 4.95266 19.1295C5.35472 19.0381 5.77506 18.965 6.19539 18.8919C5.99436 17.1557 5.95781 15.4013 6.03091 13.6468C6.14057 13.6103 10.2708 14.2682 11.2943 14.1585C13.6335 12.3127 14.1087 12.13 15.6073 11.271C20.2675 9.2607 25.5857 8.32865 30.5384 9.82724C30.5384 9.82724 31.9273 10.5583 32.5852 10.2476C34.9245 9.42518 37.2637 8.54796 39.603 7.72556C37.483 6.84834 36.2586 6.53765 34.6138 5.87973Z" fill="#263238"/>
<path d="M30.1546 12.495C29.2225 11.9284 28.7656 11.7274 27.1209 11.2888C25.0557 10.9964 24.1785 11.2157 22.753 11.3802C21.1813 11.5995 19.6279 11.965 18.1476 12.5133C15.9911 13.2077 14.0173 14.3591 12.2263 15.748C12.4639 17.8132 12.6467 19.1473 12.9391 21.3403C14.3463 20.4814 18.7872 18.3249 19.6827 17.9776C21.3092 17.3563 22.223 17.0639 24.7268 16.7166C26.134 16.5704 28.1991 16.3694 31.0501 16.7349C30.8673 15.3094 30.648 13.9936 30.1546 12.495Z" fill="#339AF0"/>
<path d="M4.31299 24.2097C4.69677 24.1366 6.68881 23.7894 7.27362 23.7163C7.20052 24.2828 7.12742 24.8311 7.07259 25.3977C6.94466 26.8049 6.90811 27.6455 6.83501 29.5279C5.09884 27.7735 4.7516 26.1287 4.31299 24.2097Z" fill="#20AD96"/>
<path d="M39.7493 20.1711C39.3655 18.0877 38.5066 16.644 37.8852 15.4561C37.8487 17.8501 38.068 18.7456 37.7756 21.158C37.3918 23.9542 36.6973 25.7086 34.9611 29.1078C32.2015 33.9874 27.7058 35.1388 25.6406 35.6688C23.3379 36.3267 20.9255 36.3449 18.5497 36.1622C17.0877 35.8698 15.4429 35.2119 14.9677 33.6585C14.657 32.5802 15.1505 31.4654 15.4977 30.442C17.3618 27.1341 20.7793 25.2517 24.3431 24.539C25.6041 24.2831 27.523 24.5938 27.6692 26.1838C28.3819 29.5647 22.15 32.5619 19.299 33.2381C20.8524 33.5488 22.4607 33.5488 23.9958 33.2016C27.5413 32.4705 31.105 30.6795 33.097 27.5544C34.2118 25.9096 34.3215 23.68 33.3894 21.9256C32.4026 19.9701 30.1912 19.0746 28.1261 18.8553C23.6851 18.4715 19.2807 19.9518 15.5525 22.2728C12.7198 24.0638 10.0882 26.3848 8.51648 29.382C6.96307 32.4705 6.87169 36.948 9.66784 39.4335C9.75922 39.5066 9.9237 39.6528 10.0151 39.7259C11.9157 41.5169 14.5474 42.1566 17.0694 42.4124C22.9907 42.6683 28.9485 40.6397 33.7184 37.1491C36.6059 34.5722 37.2273 33.1833 37.7938 32.3243C39.329 29.7292 40.7727 26.2569 39.7493 20.1711Z" fill="#20AD96"/>
<path d="M5.4642 23.3332C6.56436 23.3332 7.45623 22.4413 7.45623 21.3411C7.45623 20.241 6.56436 19.3491 5.4642 19.3491C4.36403 19.3491 3.47217 20.241 3.47217 21.3411C3.47217 22.4413 4.36403 23.3332 5.4642 23.3332Z" fill="#339AF0"/>
<path d="M49.0928 37.6371C48.1168 37.6371 47.2448 37.4131 46.4768 36.9651C45.7088 36.5011 45.1008 35.8371 44.6528 34.9731C44.2208 34.1091 44.0048 33.0851 44.0048 31.9011C44.0048 30.7171 44.2448 29.7091 44.7248 28.8771C45.2048 28.0451 45.8608 27.4131 46.6928 26.9811C47.5248 26.5491 48.4688 26.3331 49.5248 26.3331C50.1968 26.3331 50.8368 26.4371 51.4448 26.6451C52.0688 26.8531 52.5888 27.1731 53.0048 27.6051V28.6611V18.4131H56.3408V37.3491H52.9808V35.3091L53.2448 36.0291C52.7008 36.4771 52.0928 36.8611 51.4208 37.1811C50.7488 37.4851 49.9728 37.6371 49.0928 37.6371ZM50.1968 34.8051C50.6448 34.8051 51.0368 34.7491 51.3728 34.6371C51.7248 34.5091 52.0288 34.3331 52.2848 34.1091C52.5568 33.8691 52.7888 33.5731 52.9808 33.2211V30.6531C52.8528 30.3011 52.6528 30.0051 52.3808 29.7651C52.1248 29.5091 51.8048 29.3171 51.4208 29.1891C51.0528 29.0451 50.6448 28.9731 50.1968 28.9731C49.7008 28.9731 49.2368 29.1011 48.8048 29.3571C48.3888 29.5971 48.0528 29.9331 47.7968 30.3651C47.5408 30.7971 47.4128 31.2931 47.4128 31.8531C47.4128 32.4131 47.5408 32.9171 47.7968 33.3651C48.0528 33.8131 48.3888 34.1651 48.8048 34.4211C49.2368 34.6771 49.7008 34.8051 50.1968 34.8051ZM63.1813 37.8531C62.2373 37.8531 61.4453 37.5651 60.8053 36.9891C60.1653 36.3971 59.8293 35.6371 59.7973 34.7091V26.8611H63.1573V33.4611C63.1893 33.9251 63.3093 34.3011 63.5173 34.5891C63.7253 34.8611 64.0773 34.9971 64.5733 34.9971C65.0693 34.9971 65.4933 34.8291 65.8453 34.4931C66.2133 34.1571 66.4933 33.7011 66.6853 33.1251C66.8933 32.5331 66.9973 31.8691 66.9973 31.1331V26.8611H70.3573V37.3491H67.3093L67.0453 35.4291L67.0933 35.6451C66.8533 36.0771 66.5493 36.4611 66.1813 36.7971C65.8133 37.1331 65.3733 37.3891 64.8613 37.5651C64.3653 37.7571 63.8053 37.8531 63.1813 37.8531ZM77.221 37.5651C76.357 37.5651 75.549 37.4131 74.797 37.1091C74.061 36.8051 73.437 36.3811 72.925 35.8371L74.317 33.9891C74.829 34.4531 75.301 34.7891 75.733 34.9971C76.181 35.1891 76.581 35.2851 76.933 35.2851C77.205 35.2851 77.445 35.2611 77.653 35.2131C77.877 35.1491 78.053 35.0611 78.181 34.9491C78.309 34.8211 78.373 34.6611 78.373 34.4691C78.373 34.1971 78.261 33.9811 78.037 33.8211C77.829 33.6611 77.557 33.5331 77.221 33.4371C76.885 33.3251 76.525 33.2131 76.141 33.1011C75.181 32.7971 74.485 32.3571 74.053 31.7811C73.637 31.1891 73.429 30.5491 73.429 29.8611C73.429 29.3331 73.565 28.8051 73.837 28.2771C74.125 27.7331 74.573 27.2851 75.181 26.9331C75.805 26.5651 76.605 26.3811 77.581 26.3811C78.461 26.3811 79.205 26.4691 79.813 26.6451C80.421 26.8211 80.997 27.1091 81.541 27.5091L80.269 29.4771C79.965 29.2371 79.621 29.0371 79.237 28.8771C78.869 28.7011 78.525 28.6051 78.205 28.5891C77.917 28.5731 77.669 28.6051 77.461 28.6851C77.269 28.7651 77.117 28.8691 77.005 28.9971C76.893 29.1251 76.837 29.2611 76.837 29.4051C76.821 29.7091 76.933 29.9491 77.173 30.1251C77.429 30.3011 77.749 30.4371 78.133 30.5331C78.517 30.6291 78.893 30.7411 79.261 30.8691C79.773 31.0291 80.213 31.2451 80.581 31.5171C80.949 31.7891 81.229 32.1171 81.421 32.5011C81.629 32.8691 81.733 33.3171 81.733 33.8451C81.733 34.4851 81.565 35.0931 81.229 35.6691C80.909 36.2291 80.413 36.6851 79.741 37.0371C79.085 37.3891 78.245 37.5651 77.221 37.5651ZM87.5953 26.8611L87.8593 28.7091L87.8113 28.5651C88.2273 27.8611 88.7473 27.3171 89.3713 26.9331C89.9953 26.5331 90.7473 26.3331 91.6273 26.3331C92.2033 26.3331 92.7073 26.4131 93.1393 26.5731C93.5873 26.7331 93.9633 26.9731 94.2673 27.2931C94.5713 27.5971 94.7793 27.9971 94.8913 28.4931L94.7713 28.5171C95.2193 27.8611 95.7553 27.3331 96.3793 26.9331C97.0193 26.5331 97.6833 26.3331 98.3713 26.3331C99.4113 26.3331 100.235 26.6291 100.843 27.2211C101.467 27.7971 101.787 28.5491 101.803 29.4771V37.3491H98.4673V30.8691C98.4513 30.4051 98.3793 30.0291 98.2513 29.7411C98.1233 29.4371 97.8273 29.2691 97.3633 29.2371C96.8193 29.2371 96.3553 29.4291 95.9713 29.8131C95.6033 30.1811 95.3233 30.6611 95.1313 31.2531C94.9553 31.8291 94.8673 32.4291 94.8673 33.0531V37.3491H91.5073V30.8691C91.4913 30.4051 91.4033 30.0291 91.2433 29.7411C91.0993 29.4371 90.7953 29.2691 90.3313 29.2371C89.8033 29.2371 89.3553 29.4291 88.9873 29.8131C88.6353 30.1811 88.3633 30.6531 88.1713 31.2291C87.9953 31.8051 87.9073 32.3971 87.9073 33.0051V37.3491H84.5473V26.8611H87.5953ZM109.682 37.6371C108.706 37.6371 107.818 37.4451 107.018 37.0611C106.234 36.6611 105.61 36.0531 105.146 35.2371C104.682 34.4211 104.45 33.3811 104.45 32.1171C104.45 30.9331 104.69 29.9091 105.17 29.0451C105.65 28.1811 106.282 27.5171 107.066 27.0531C107.85 26.5731 108.682 26.3331 109.562 26.3331C110.602 26.3331 111.386 26.5091 111.914 26.8611C112.458 27.1971 112.906 27.5731 113.258 27.9891L113.114 28.3971L113.426 26.8611H116.546V37.3491H113.186V35.0691L113.45 35.7891C113.418 35.7891 113.322 35.8851 113.162 36.0771C113.002 36.2531 112.762 36.4691 112.442 36.7251C112.138 36.9651 111.754 37.1731 111.29 37.3491C110.842 37.5411 110.306 37.6371 109.682 37.6371ZM110.642 34.9011C111.042 34.9011 111.402 34.8451 111.722 34.7331C112.042 34.6051 112.322 34.4291 112.562 34.2051C112.802 33.9651 113.01 33.6691 113.186 33.3171V30.7491C113.058 30.3971 112.866 30.1011 112.61 29.8611C112.354 29.6051 112.05 29.4131 111.698 29.2851C111.346 29.1411 110.954 29.0691 110.522 29.0691C110.042 29.0691 109.594 29.1971 109.178 29.4531C108.778 29.6931 108.458 30.0291 108.218 30.4611C107.978 30.8931 107.858 31.3891 107.858 31.9491C107.858 32.5091 107.986 33.0131 108.242 33.4611C108.498 33.9091 108.834 34.2611 109.25 34.5171C109.682 34.7731 110.146 34.9011 110.642 34.9011ZM123.032 26.8611L123.344 29.7411L123.272 29.3091C123.576 28.6851 123.992 28.1571 124.52 27.7251C125.048 27.2771 125.568 26.9331 126.08 26.6931C126.608 26.4531 127.008 26.3331 127.28 26.3331L127.112 29.6931C126.328 29.5971 125.656 29.7251 125.096 30.0771C124.536 30.4291 124.104 30.8931 123.8 31.4691C123.496 32.0451 123.344 32.6371 123.344 33.2451V37.3491H120.008V26.8611H123.032ZM130.836 22.2531H134.196V26.8131H136.74V29.4291H134.196V37.3491H130.836V29.4291H129.204V26.8131H130.836V22.2531Z" fill="#25292C"/>
</svg>
