<svg width="42" height="42" viewBox="0 0 42 42" fill="none" xmlns="http://www.w3.org/2000/svg">
<path d="M21 0C9.40534 0 0 9.40416 0 21C0 32.5958 9.40534 42 21 42C32.5947 42 42 32.5958 42 21C42 9.40416 32.5947 0 21 0ZM28.0234 8.24283C29.6872 8.24283 31.0359 9.61372 31.0359 11.3077C31.0359 13.0017 29.6872 14.3726 28.0234 14.3726C26.3595 14.3726 25.0108 13.0017 25.0108 11.3077C25.0108 9.61372 26.3595 8.24283 28.0234 8.24283ZM31.0797 24.6412C31.0797 30.3954 26.4733 33.7746 21.0175 33.7746C15.4917 33.7746 10.9204 30.3954 10.9204 24.6412V11.1156C10.9204 9.53514 12.1639 8.2341 13.7577 8.2341C15.3866 8.2341 16.7352 9.5264 16.7352 11.1156V24.6062C16.7352 27.8457 18.8982 28.8848 21.0263 28.8848C23.1543 28.8848 25.2736 27.837 25.2736 24.6062V19.7077C25.2736 18.1272 26.6222 16.8262 28.251 16.8262C29.8449 16.8262 31.0884 18.1185 31.0884 19.7077V24.6412H31.0797Z" fill="#5648FF"/>
</svg>
